<?xml version="1.0"?>
<svg width="272.383" height="272.383" xmlns="http://www.w3.org/2000/svg" xmlns:svg="http://www.w3.org/2000/svg" version="1.1" xml:space="preserve">
 <g class="layer">
  <title>Layer 1</title>
  <g id="svg_1">
   <g id="svg_2" transform="rotate(-0.228466 137.39 141.147)">
    <path d="m186.64,152.66l-18.24,0c9.23,-14.03 15.15,-32.87 15.15,-49.74c0,-31.23 -20.65,-56.63 -46.02,-56.63s-46.03,25.4 -46.03,56.63c0,16.87 5.92,35.7 15.15,49.74l-18.51,0c-8.41,0 -16.15,5.2 -20.71,13.92c-3.21,6.14 -3.89,16.88 -2,31.94l2.41,19.29c1.27,10.2 8.84,18.19 17.23,18.19l104.66,0c8.39,0 15.95,-7.99 17.23,-18.19l2.41,-19.29c1.88,-15.06 1.21,-25.81 -2,-31.94c-4.56,-8.71 -12.31,-13.92 -20.72,-13.92zm14.22,64.01c-0.8,6.37 -5.9,11.76 -11.14,11.76l-104.67,0c-5.24,0 -10.35,-5.38 -11.14,-11.76l-2.41,-19.29c-1.6,-12.81 -1.22,-22.29 1.09,-26.7c3.42,-6.54 9.23,-10.44 15.54,-10.44l24.25,0c7.3,8.35 15.98,13.7 25.14,13.7s17.85,-5.35 25.14,-13.7l23.98,0c6.31,0 12.12,3.9 15.54,10.44c2.31,4.4 2.69,13.89 1.09,26.69l-2.41,19.3zm-23.17,-113.75c0,17.02 -6.95,36.76 -17.13,49.74c-1.05,1.34 -2.13,2.6 -3.25,3.79c-1.3,1.38 -2.63,2.66 -4,3.79c-4.92,4.06 -10.27,6.51 -15.8,6.51s-10.87,-2.44 -15.79,-6.51c-1.38,-1.13 -2.7,-2.41 -4,-3.79c-1.12,-1.18 -2.2,-2.44 -3.25,-3.79c-10.18,-12.98 -17.13,-32.71 -17.13,-49.74c0,-27.26 18.02,-49.44 40.18,-49.44s40.17,22.18 40.17,49.44z" fill="#010002" id="svg_3"/>
   </g>
  </g>
 </g>
</svg>