<svg enable-background="new 0 0 32 32" viewBox="0 0 32 32" xmlns="http://www.w3.org/2000/svg"><path d="m31 31.36h-30c-.199 0-.36-.161-.36-.36v-30h.72v14.632c3.704-.168 5.584-2.933 7.405-5.609 1.8-2.646 3.662-5.382 7.235-5.382s5.436 2.736 7.235 5.382c1.879 2.762 3.821 5.618 7.765 5.618v.72c-4.324 0-6.376-3.016-8.36-5.933-1.773-2.606-3.448-5.068-6.64-5.068-3.193 0-4.867 2.461-6.64 5.067-1.928 2.834-3.92 5.763-8 5.926v14.287h2.28v-10.64c0-.199.161-.36.36-.36h3.64v-3.64c0-.199.161-.36.36-.36h3.64v-4.64c0-.199.161-.36.36-.36h4c.199 0 .36.161.36.36v1.64h3.64c.199 0 .36.161.36.36v3.64h3.64c.199 0 .36.161.36.36v4.64h3.64c.199 0 .36.161.36.36v8.64h2.64zm-6.64-.72h3.279v-8.28h-3.279zm-4 0h3.279v-13.28h-3.279zm-4 0h3.28v-17.28h-3.28zm-4 0h3.28v-19.28h-3.28zm-4 0h3.28v-14.28h-3.28zm-4 0h3.28v-10.28h-3.28z"/><path d="m0 0h32v32h-32z" fill="none"/></svg>